<svg xmlns="http://www.w3.org/2000/svg" viewBox="0 0 696.65 346.21"><defs><style>.cls-1{fill:none;stroke:#fff;stroke-linecap:round;stroke-linejoin:round;stroke-width:2px;}.cls-2{fill:#fff;}</style></defs><g id="Layer_2" data-name="Layer 2"><g id="Layer_1-2" data-name="Layer 1"><path class="cls-1" d="M538.72,198.5c-13.62-1.59-27.31-2.07-41-2.44-11-.3-22-.36-33,0-7.69.29-15.33.29-23,0-7.32-.25-14.67.53-22,.89-.5,0-1,.46-1.5.46-18.16-.19-36.34.61-54.5-.51a317.17,317.17,0,0,0-37,0"/><path class="cls-1" d="M538.22,207.5c-8.25-1.84-16.67-.69-25-1.42a309.6,309.6,0,0,0-46-.36c-26.69,1.62-53.35.4-80,.68-18.83.19-37.66-.56-56.5-.92a36.65,36.65,0,0,1-4-.48"/><path class="cls-1" d="M536.72,224.5c-7.33,0-14.75.71-22-.14-16.65-2-33.41-2.93-50-1.59-19.38,1.57-38.7-.11-58,.82-17.56.85-35-.76-52.49-1.44-9.25-.36-18.35.42-27.52.35"/><path class="cls-1" d="M535.22,194c-8.63-1.07-17.34-.68-26-1.81-12.07-1.58-24.32-1.72-36.47-2.73-13.16-1.09-26.36-.44-39.5-1.08-18.69-.9-37.34.59-56,.13-10.68-.26-21.34.85-32,1.31-6.2.27-12.4-1.73-18.52.18"/><path class="cls-1" d="M539.72,189c-10.24-1.93-20.62-2.3-31-2.46-10.83-.17-21.68.36-32.49-.11-32.33-1.42-64.66-1.87-97-2.2-13.63-.14-27.39.07-41-1.75-2-.26-4,1.53-6,0"/><path class="cls-1" d="M237.22,228.5c5.56,2.21,11.45,1.37,17,.74s11.11-1.33,16.48.41c1.64.53,2.71-.27,4.05-.16,11.85.95,23.63-1.16,35.51-.64,9.13.41,18.32-.69,27.49-.8,8-.09,16,.38,24,.43,12.67.08,25.35-.32,38,.12,12.17.42,24.32,1,36.5,1,7.36-.05,14.64-1.81,22-1a256.58,256.58,0,0,0,42.48.65,150.92,150.92,0,0,1,21.51.51c5.37.44,10.65,1.12,16,.37a170.27,170.27,0,0,1,3.92-47.19c-5-4.77-12.06-7.44-17.84-11.91-12.59-9.71-25.37-19.23-37.39-29.62-6.51-5.63-14.09-7.25-21.65-7.56-11.15-.46-22.31-1.28-33.49-1.26-7.5,0-15,.37-22.5.23-5.77-.11-11.7,1.24-17.49.66-21.79-2.16-43.71-1.1-65.51-2.86-7.65-.62-15.39-.24-23-1.19-7-.87-14-.78-21-.83a36.14,36.14,0,0,0-4.5.47"/><path class="cls-1" d="M480.72,136.5c1.82-1.45-.26-2.86-.63-3.41-10.46-15.1-17.25-32.3-27.36-47.6q-11.84-17.94-23.49-36a17.38,17.38,0,0,1-1.61-3c-2.37-6-7-8.86-13.41-9.06-7.17-.23-14.29-1.15-21.5-1.07-8.83.1-17.67.57-26.51-.33-1.94-.2-4,.59-6,.92"/><path class="cls-1" d="M542.22,217.5c-22-1.37-44-1.75-66-2.14-14.5-.25-29-.68-43.49-.23-16.35.5-32.68.35-49,.31-18-.06-36-.6-54-1a28,28,0,0,1-3.5-.48"/><path class="cls-1" d="M333.22,180.5c4.84-.33,9.67-1,14.5-.95,21.34,0,42.67.28,64,.45,20.67.16,41.37-.36,62,.7,20,1,40,2,60,1.82a14,14,0,0,0,6.25-1"/><path class="cls-1" d="M287.22,28.5c-1.06,1.21-2.21,2.71-4,1.95-3.28-1.41-6.76-.36-10-1-8.49-1.77-17-.54-25.52-.91-9.16-.39-18.33-.77-27.5-1-4.53-.1-6.26,1.86-7.59,6.43-.83,2.82-2.48,5.41-3.92,8-11.59,21-22.7,42.3-33.05,64-4.49,9.42-9.6,18.53-14.44,27.78"/><path class="cls-1" d="M215.72,30q22.72,35.53,43.15,72.42c9.2,16.59,19.89,32.3,34.79,44.66,3.54,2.93,4.31,8.28,8.48,11,.82.54,1.15,2.07,2.58,1.86,2-.31,3.22.63,4.53,2,4.92,5.08,10,10.05,15,15,1.56,1.55,2.56,3,2.06,5.52-1.24,6.27-.41,12.66-.53,19-.16,8.66,0,17.33,0,26"/><path class="cls-1" d="M631.22,152a10.38,10.38,0,0,0,2.83-9.47A27,27,0,0,1,635.1,127c3.55-9.22.3-19.67-6.88-24.45-5.09,3.08-7.25,8.66-6,15.5a13.37,13.37,0,0,0,11,11"/><path class="cls-1" d="M295.22,154.5c-2.81,1.6-5.92,1.47-9,1.5-14.83.16-29.74-.55-44.47.79a215.78,215.78,0,0,1-33.05.08c-7-.42-14.29,1.16-21.46,1.81-4.68.42-9.27,1.43-14,.89-1.11-.13-2.32.6-3.49.93"/><path class="cls-1" d="M296.22,152.5c-3.14.25-4.67-2.17-6.48-4s-3.55-2.33-6.53-2.24c-11.16.34-22.29,2.33-33.48,1.22-2.74-.27-5.23,2.16-8,.54"/><path class="cls-1" d="M359.22,20c-2.78-7-9.44-11.09-12.69-17.33C338,2,329.91,4.4,321.72,4.38c-6.25,0-12.3,1.49-18.5,1.53-.33,0-.49-.35-1,0a78.9,78.9,0,0,0-13.92,13.59c-1.6,2-.29,3.95,1.44,5.45"/><path class="cls-1" d="M100.72,147c1.75,5.36,3.54,10.57,2.65,16.52-.74,4.94.53,10,1.19,15,.8,6.06,1.7,12,3,18,.47,2.23-1.28,4.43-4.84,3.58A30.45,30.45,0,0,1,94.24,197c-5.18-3-11-2.2-16.52-2.94-7.15-.95-14.33-1.7-21.5-2.52-.71-.08-1.55.16-1.5-1"/><path class="cls-1" d="M249.72,98c-5.49.32-10.78,1.94-16.55.77-3.37-.68-7.27-.1-10.95-.2-8.32-.22-16.66-.07-25.5-.07v59"/><path class="cls-1" d="M338.22,56c-5.39.57-6,.13-6-4.5q0-10.24,0-20.5c0-5.4-1.38-6.93-7-7-5.16,0-10.33.43-15.5.42-5.33,0-10.66-.3-16-.46-2.2-.06-4,.5-4.5,3"/><path class="cls-1" d="M236.22,228c-1.49-8.31-.72-16.67-.42-25,.34-9.68,1.26-19.33,1.91-29a22.49,22.49,0,0,1,0-3.49c1.36-5.79,1-6.45-5-6.24-9.33.33-18.66.87-28,1.2-3.73.13-5.52,1.63-5,5.53,1.28,9.83.47,19.72-.21,29.48-.55,7.86-.63,15.68-.74,23.52,0,1.65-.73,3.44,1.26,5.5,9.53,0,19.87,0,30.2,0,1.72,0,3.56.47,5-1"/><path class="cls-1" d="M596.72,182c3,.4,4-2.55,4.83-4.09,3.88-7.26,4.83-15.33,4-23.4-.41-4.15-3.16-7.42-7.6-9.34-7.58,9.78-9.29,20.33-5.2,31.81.45,1.27.87,3.09,2.94,3"/><path class="cls-1" d="M29.22,65c3.66,4.28,5,9.18,2.87,14.45a3.78,3.78,0,0,0,.23,3.48c7.6,10.72,11.85,23.34,19.4,34.07"/><path class="cls-1" d="M99.22,147l3.34-1.67c8,8.36,10.15,23.87,4.63,33.65-.26.47-1,.69-1.47,1"/><path class="cls-1" d="M19.22,128c-1.11,0-2.32-.29-3.13,1.29,1.88,2.93,3.66,6.13,5.46,9.31,3.34,5.92,16.9,7.21,21.16.89a6,6,0,0,0,.51-1.49"/><path class="cls-1" d="M575.22,199c10.23-4.73,13.49-17.76,6.5-26-2.6-3.07-8.66-3.52-13-.44-4.71,3.38-5.4,8.69-5,13.93.49,5.88,3.9,9.31,9.41,10.51"/><path class="cls-1" d="M66.72,144c-4.24-5.39-7-11.68-10.45-17.53a14,14,0,0,0-6.91-6.26C36,114,21.73,109.27,10.32,99.31c-2.31,4.55-1,10.9,3.47,12.5,5.58,2,11,5.38,17.44,4.23,1.39-.26,3,.1,3-2"/><path class="cls-1" d="M677.22,98c3,.17,6,.18,9,.53,6.75.8,8,3.61,4.5,9.47-3.14,5.22-17.94,10-23.48,7.46-.46-.21-.68-1-1-1.46"/><path class="cls-1" d="M679.72,68.5c-11.13,11.84-18.42,26.11-25.5,40.5-1.23,2.5-2.41,5-4.5,7"/><path class="cls-1" d="M19.72,55.5c-3.45-.86-6.85-1.16-9.95,1.28.31,1.44,1.77,2.17,2.91,3.26,5.9,5.67,11.85,11.31,16,18.46.63,1.07,1.33,2,2.75,2"/><path class="cls-1" d="M308.22,34.5c3.84,7.33,7.53,14.74,11.56,22,1.81,3.23,5.88,4.36,8,7.49a3.11,3.11,0,0,0,2.44,1c9.82-1.05,19.67-.14,29.5-.47a8,8,0,0,0,1.92-.58c.93-2.57,2.11-5.23.08-7.9"/><path class="cls-1" d="M274.72,136.5c-.71,1.19-1.87,1-3,1q-14,.47-28,1a9.69,9.69,0,0,0-2,.48"/><path class="cls-1" d="M127.22,198c10.17-5.43,13.11-17.43,6-24.5-5.06-5-12.23-3.88-15.5,2.5-4.61,9-1.58,18.28,7.5,23"/><path class="cls-1" d="M679.22,57c1.61-.82,3-1.94,5-2.06,7.36-.44,9.55,2.48,7.6,9.59a29.06,29.06,0,0,1-5.19,10.4c-3.87,4.9-9.22,6.58-15.41,5.07"/><path class="cls-1" d="M8.72,58c-1.1,10,5.28,17.86,11,21.06,3.16,1.77,6.25,1.66,9.53.94"/><path class="cls-1" d="M600.22,147.5A29.5,29.5,0,0,0,597.59,162c.56,9.75-1.55,19.36-3,29-.36,2.53-1.47,4.93-.42,7.51"/><path class="cls-1" d="M267.72,224c-10.49.91-21-.8-31.5.5"/><path class="cls-1" d="M681.22,128.5c-7.2,4.72-16.13,5.19-23.63,9.87-.73-5.42,3.08-7.94,6.22-10.25,4.71-3.48,14.68-2.68,20.54,1-2.4,7.65-6.3,14-15.14,14.78-4.29.36-9-.23-11-5.36"/><path class="cls-1" d="M646.22,102c7.89-7,.72-25.25-8-28.4-.76-.28-2,.81-2.69,1.1.57,9.41,5.59,17,8.72,25.3"/><path class="cls-1" d="M65.72,74.5c3.65,1.27,4,4.13,4.07,7.5,0,5.13-1.85,9.73-4.25,13.89-1.51,2.63-3.94,5.86-8.36,4.24-.67-.25-2,1.2-3,1.87"/><path class="cls-1" d="M591.22,215.5c7.13,7.66,15.25,11.63,26,8.15,2.87-.92,4-3.11,5.84-4.77a3.15,3.15,0,0,0-.82-3.47c-7.52-6.32-16-7.11-25.06-4.88a4.46,4.46,0,0,0-3,3"/><path class="cls-1" d="M634.72,75c-2.13.48-2.78,1.72-3.1,4-1.17,8.3,1.41,15,7.62,20.49a2.65,2.65,0,0,0,1.48.5c6,.58,7.1,4.31,6.57,9.53-.4,3.83,2.51,7.49.93,11.49h3"/><path class="cls-1" d="M267.22,207c-7.66.17-15.36,0-23,.69-2.78.26-5.35-.84-8-.19"/><path class="cls-1" d="M109.22,215c-10.3-9.4-22.5-6.1-31.5,1,1.41,6,8,10.85,14,9.36,6.49-1.62,13.36-3.29,17.48-9.4,2-3,4.72-1.15,6.5-.74a33.82,33.82,0,0,0,12,.26c1.8-3.09.28-6.24-.6-8.92-1.75-5.3-.63-10.5-.1-15.54.68-6.48,0-12.7-.73-19"/><path class="cls-1" d="M198.22,218.5l-30.5.5"/><path class="cls-1" d="M644.72,189c-6.34-3.45-13.13-3.5-20-2.46-4.31.65-7.05,3.4-8.51,7.46"/><path class="cls-1" d="M67.72,127.5c3.35-7.71,4-16.19,7-24.12-4.8-2.22-6.35,2.54-7.76,4.76C63.55,113.48,64.5,120,64.85,126c.16,2.77,4.81,3.53,7.37,1.51,6-4.68,7.83-10.82,5.88-18-.45-1.64.75-4.15-1.88-5"/><path class="cls-1" d="M266.72,214.5c-10.15.9-20.39.43-30.5,2"/><path class="cls-1" d="M84.22,194c-.53-4.47-4-6.66-7.53-7.32-7.14-1.35-14.43-1.44-21,2.82"/><path class="cls-1" d="M199.22,189.5c-3.33-2.15-6.65.19-10,.07a93,93,0,0,0-20,.93"/><path class="cls-1" d="M594.22,200c2.45,1.38,5.18.39,6.92-.65,9.06-5.38,19.47-4,29.05-6.49,5.21-1.37,10.48.35,15.69-2.19-1,5.32-1.43,5.84-9.17,8.28-6.51,2.06-12.79,1.86-18-3.45"/><path class="cls-1" d="M198.72,197c-10-.11-20,.61-30,1.5"/><path class="cls-1" d="M267.22,197c-8.32.66-16.64,2.15-25,.85-1.82-.28-3.35.47-5,.15"/><path class="cls-1" d="M268.22,178.5c-8,1.17-16,1.07-24,1-2.05,0-4.14.19-6-1"/><path class="cls-1" d="M198.22,207.5l-29.5,1"/><path class="cls-1" d="M56.72,99.5C60,91.33,65.6,83.93,64.63,73.9c-4.18-1.3-6.73,2.73-8.73,5.25-5,6.3-5.91,13.71-2.68,21.35"/><path class="cls-1" d="M199.22,171.5a238.33,238.33,0,0,0-29.5,1.5"/><path class="cls-1" d="M54.72,192c4.8,9,19.23,10.84,27.5,3.5"/><path class="cls-1" d="M239.22,169.5c3.75,2.16,7.72.67,11.49.38,6-.46,12-.23,18-.38"/><path class="cls-1" d="M267.22,188.5h-29.5"/><path class="cls-1" d="M199.22,178.5c-7.06,1.84-14.33,1.33-21.5,2-2.66.25-5.38-.46-8,.51"/><path class="cls-1" d="M301.22,160.5c-4.13,2.82-9,1.89-13.51,2.37-5.46.58-11.13-.49-16.44,1.26-1.81.6-2.71-.61-4-.62-8.5,0-17,0-25.5,0-.5,0-1,.63-1.5,1"/><path class="cls-1" d="M198.72,166.5c-1.7-1.08-3.59-1-5.5-1-7.83,0-15.66,0-23.5,0"/><path class="cls-1" d="M35.72,165.5c1.22.06,2.17-.1,3.1,1.44,3.92,6.49,16.56,9.68,22.9,6.06,3.08-1.76,3.14-4.13,1.07-7.05-4.06-5.69-14.36-7.12-24.07-1.45"/><path class="cls-1" d="M86.72,129.5c-5,5.94-6.06,12.85-3.9,20,2.42,8,5.31,8.64,12.39,4,.46-.3.68-1,1-1.47"/><path class="cls-1" d="M230.22,107c-6.37-2.17-13-1.84-19.47-1.19-2.2.23-4-.62-6-.42-2.48.25-5.13,1.34-3.77,3.47,2.27,3.57,1.36,7.16.55,10.08-2.12,7.68.64,15.05.42,22.57-.09,3.42-1.41,7.06.58,10.52,3.16,1,5.41.32,7.92-2.88,3.3-4.19,6.21-8.7,10.18-13.06a100.48,100.48,0,0,1,9.63,14.41"/><path class="cls-1" d="M613.72,129.5c7,8.16,7,19.14,0,26.5"/><path class="cls-1" d="M196.22,152.5h-26.5"/><path class="cls-1" d="M662.22,164.5c-6.6-3.63-13.33-5.3-20.51-1.52-2.17,1.14-4,2.46-4.49,5"/><path class="cls-1" d="M43.22,137c-.7-6.93-5.77-9.18-11.51-10.45-3.86-.86-7.81-1.12-11.49,1"/><path class="cls-1" d="M571.22,216.5c-6.63,5.52-14.69,8.62-22,13-1.35.8-3.4.48-4,2.51"/><path class="cls-1" d="M89.22,129.5c4,8.09,1.93,16.31-.73,23.92s-1.35,15.2-3.27,22.58"/><path class="cls-1" d="M611.22,130c-3,7.24-1,14.39.55,21.49,1,4.31,2.71,8.26,2.2,13-.38,3.65,1.72,7.51,1.25,11.47"/><path class="cls-1" d="M197.72,228.5c-1.86,1.17-3.94,1-6,1-8.17,0-16.34,0-25,0,1.05-6.66,0-13.74,1-21.07.91-6.72.83-13.93,1-20.93.4-14.83-.54-29.67.43-44.5.12-1.81-.59-3.67-.94-5.5-.6-3.08,1.09-3.31,3.51-3a50.24,50.24,0,0,0,5.49,0h16"/><path class="cls-1" d="M665.22,165c-1.16.67-3,1.06-3.39,2-2.7,6.48-9.13,5.73-14.15,7.31-4,1.25-7.66-1-11-3.35"/><path class="cls-1" d="M574.72,171.5c-1,7.8-3,15.83-.77,23.43,2.14,7.38-2.31,14-1,21.51,13.56-10.86,27.56-20.68,37.08-35,3.25-4.91,8.4-5.12,12.7-7.3,12-6.12,25.21-7,38.44-7.11"/><path class="cls-1" d="M266.22,128.5c-2.82,2-6,.73-9,1-5.16.4-10.42-.7-15.5,1"/><path class="cls-1" d="M39.22,166.5c10.07.6,20,2.08,30,3.5"/><path class="cls-1" d="M353.22,58q-7-12.26-14-24.5a2.83,2.83,0,0,0-2.49-1.59c-8.48-1-17.08.55-25.53-1.33-1.2-.26-2.64.59-4,.92"/><path class="cls-1" d="M362.22,24.5c.35-2.07-.32-4.34-2.47-3.87-7.62,1.67-15.5-.33-23,1.89a6.39,6.39,0,0,0-1.51,1"/><path class="cls-1" d="M304.72,161.5c4.84,7.76,11.95,13.4,18.65,19.33,1.66,1.47,5.19.84,7.85,1.17"/><path class="cls-1" d="M292.22,29.5c1.44,1.46,3.3.83,5,1s3.34-.42,5,.45c9.36,4.91,19.53,3.35,29.48,3.53"/><path class="cls-1" d="M20.22,128.5c4.47,3.83,10.34,4.33,15.53,6.44,3.35,1.37,6.69,3.06,10.47,3.06"/><path class="cls-1" d="M95.22,154.5c1.16,2.5.2,5,0,7.5-.62,6.53,2.68,11.88,5.13,17.46a4,4,0,0,0,3.91,2.54"/><path class="cls-1" d="M173.72,126h22"/><path class="cls-1" d="M626.72,105l6,22"/><path class="cls-1" d="M134.22,220l21.5,11.5"/><path class="cls-1" d="M244.72,89.5c-1,1.64-2.63,1-4,1-7.56.07-15.12-.12-22.5,2-2.75.79-5.31-.78-8-1.08-6.18-.7-12.35,0-18.51-.4"/><path class="cls-1" d="M647.72,122c-3.16,5.33-6.36,10.65-9.48,16-1,1.77-1.71,3.77-3.52,5"/><path class="cls-1" d="M331.72,38.5c-5.16-.33-10.33-.72-15.5-1-1.83-.09-3.73-.37-5.5.47"/><path class="cls-1" d="M343.22,1a7.75,7.75,0,0,1-2.48,7c-2.75,2.57-5.1,5.66-8.09,7.88a10.33,10.33,0,0,0-4.43,8.1"/><path class="cls-1" d="M233.22,134.5c1.37,5.25,1.55,10.62,1.49,16.44-8.35-.35-16.51,2.92-25,1.06"/><path class="cls-1" d="M198.22,224.5a142.73,142.73,0,0,0-30.5,1"/><path class="cls-1" d="M676.22,59c-4.38,5.27-9.2,10.31-8.54,18a2.74,2.74,0,0,0,1,2"/><path class="cls-1" d="M215.22,83.5c-6,.33-12,1-18,.82-1.65,0-3,.5-3.4,1.24-2,4-5.17,7.41-6.11,11.94"/><path class="cls-1" d="M97.22,216c-6.36.4-12.55,2.38-19,2"/><path class="cls-1" d="M622.22,217.5c-6.51,1.78-12.62-1.56-19-1.5"/><path class="cls-1" d="M196.72,143l-27,.5"/><path class="cls-1" d="M613.22,128c-4.68,1.53-9.28,3.63-10.81,8.56-.92,2.94-2.17,5.85-2.69,8.94"/><path class="cls-1" d="M107.72,200.5l18.5,14.5"/><path class="cls-1" d="M313.72,43l18,1"/><path class="cls-1" d="M335.72,57.5c.77,2.15,2.47,2.66,4.5,2.49,3.67-.3,7.33-.81,11-.94a7.2,7.2,0,0,0,6.5-4"/><path class="cls-1" d="M202.72,143a87.74,87.74,0,0,0,12.68-14.77c-4.17-5.2-7.72-11-12.68-15.73"/><path class="cls-1" d="M262.72,121l-20.5,1"/><path class="cls-1" d="M259.22,115a58.1,58.1,0,0,1-16.5,0"/><path class="cls-1" d="M213.22,35c2.1,1.7,4.45,3.25,4,6.5-.23,1.61,1.11,2.34,2,2.94,6.37,4.16,5.85,10.29,4.94,16.56,0,.18-.43.31-.46.5-.51,2.87-1.89,6.63.65,8.24a8.72,8.72,0,0,0,8.83-.24"/><path class="cls-1" d="M81.22,176c3.54-.16,6.66,1.1,8.42,4.05,2.67,4.45,6.5,7.88,9.58,11.95"/><path class="cls-1" d="M360,27c-1.84,4.41-.24,9-.66,13.51-.4,4.13-.09,8.32-.09,12.49"/><path class="cls-1" d="M224.72,84c5.17-.13,10.36.46,15.5-.5"/><path class="cls-1" d="M352.22,27c-.71,5.76-4.23,10.2-7,15"/><path class="cls-1" d="M181.22,111c5,1.12,10,.19,15,.5"/><path class="cls-1" d="M212.72,59.5a13.94,13.94,0,0,1,1.55,7c0,5-.7,10,2.29,14.6a3.83,3.83,0,0,1-1.31,5.45c-1.79,1-2.3,2.91-2,5"/><path class="cls-1" d="M331.72,48.5c-5,.29-10-.6-15,.5"/><path class="cls-1" d="M67.22,129c0,6.67.77,13.33,0,20"/><path class="cls-1" d="M601.22,215c-6.71-.66-13.38-.74-20,.91-1.5.37-3.4.65-5-.41"/><path class="cls-1" d="M200.22,76c4.64,1.07,9.34.23,14,.5"/><path class="cls-1" d="M27.22,100c4.66,3.3,6.44,8.2,7.5,13.5"/><path class="cls-1" d="M358.72,28.5C352.26,24,345,27.32,338.21,26.67a26.69,26.69,0,0,0-5.49.33"/><path class="cls-1" d="M95.22,132c4.18,3.53,3.52,9.22,6,13.5"/><path class="cls-1" d="M177.72,118c5.81,1.13,11.7-.91,17.5.5"/><path class="cls-1" d="M331.72,53c-4.18.15-8.43-.53-12.5,1"/><path class="cls-1" d="M209.22,107a62.89,62.89,0,0,0,10,12"/><path class="cls-1" d="M236.72,77.5h-12"/><path class="cls-1" d="M53.22,105c.62,5.23-.87,10.32-1,15.5"/><path class="cls-1" d="M23.22,98c-4.11,0-8.24-.14-12,2"/><path class="cls-1" d="M76.22,162c2.61,3.84,4.68,8.1,8.5,11"/><path class="cls-1" d="M254.22,107.5c-3.82.53-7.71-.74-11.5.5"/><path class="cls-1" d="M671.22,102c-2.17,3.57-4.82,7-4.5,11.5"/><path class="cls-1" d="M270.22,129.5c3.51,3.32,6.2,7.4,10.4,10.15,1.89,1.25,4.68,2.67,4.6,5.85"/><path class="cls-1" d="M678.22,108c-5.9,2.89-11.62,6.19-18,8"/><path class="cls-1" d="M222.72,68c-1.77,1-2,2.67-2,4.5s.57,3.89-1,5.5"/><path class="cls-1" d="M691.22,57.5l-10.5,10"/><path class="cls-1" d="M344.72,45c-3.13,2.65-3.47,7-6,10"/><path class="cls-1" d="M195.72,103.5c-3.46.91-7,.34-10.5.5"/><path class="cls-1" d="M195.22,84c0-.67-.25-1.49.05-2,1.4-2.23,3.7-4.19,4.25-6.58.59-2.56,2.22-4.27,3-6.45h11.22"/><path class="cls-1" d="M269.72,165c.48,9.88-1.37,19.65-1.46,29.5-.1,10.33-1.31,20.68.41,31a9.09,9.09,0,0,1-.95,6.49"/><path class="cls-1" d="M217.72,43.5c-6.18,4.68-8.19,9.88-6,15.5"/><path class="cls-1" d="M212.72,51l8.5,1"/><path class="cls-1" d="M241.72,100c.92,10.87-.79,21.67-.94,32.5-.1,7.83-.43,15.68.44,23.5"/><path class="cls-1" d="M169.72,134c.47-5.47,4.12-9.63,6.18-14.42,2.86-6.69,7.34-12.63,9.91-19.55.4-1.09,1.19-2.39,3.47-1.72,2.06.6,4.61-1,6.94.19"/><path class="cls-1" d="M232.22,122c-2.82.68-3.79,3.59-6.56,4.91,2.7,2.81,4.1,6.32,8.06,7.09"/><path class="cls-1" d="M106.72,214c-2.35,1.45-5,.91-7.5,1"/><path class="cls-1" d="M621.22,167c-2.06,1.79-2.21,5.33-5.5,6"/><path class="cls-1" d="M224.22,70.5c-1.18,5.8.17,11.68-.51,17.5-.1.84-.32,1.67-.49,2.5"/><path class="cls-1" d="M612.72,156.5c-2.92,1.12-3.92-2.73-6.5-2.5"/><path class="cls-1" d="M365.22,32.5h-5.5"/><path class="cls-1" d="M639.22,147c-2,.19-3.06,3-5.5,2"/><path class="cls-1" d="M689.22,100.5l-5,3.5"/><path class="cls-1" d="M63.22,148c2.64,1.24,5.89,1.62,7,5"/><path class="cls-1" d="M274.22,128c-5.84,1.67-5.77,1.63-9-4-9-15.61-17.32-31.59-27.33-46.62a38.15,38.15,0,0,1-5-9.94c-1.33-4.53-4.43-6.6-8.16-8.47a11.86,11.86,0,0,0-11,0,3.7,3.7,0,0,1-1.49,0"/><path class="cls-1" d="M87.22,128c1.54,2.06,4.46,0,6,2"/><path class="cls-2" d="M23.74,264.8c1.46,0,3.18,0,5.16-.07s4-.06,5.93-.06c1.72,0,3.34,0,4.84.13s2.95.21,4.32.39a1.39,1.39,0,0,1,1.29-.65q4.39,1.43,8.65,3A52.5,52.5,0,0,1,62,271.44a38.34,38.34,0,0,1,7,5.36,34.61,34.61,0,0,1,5.81,7.48c.08-.09.3-.13.64-.13.69,0,1.29.73,1.81,2.19a29.19,29.19,0,0,1,1.22,5.1c.3,1.93.52,3.85.65,5.74s.19,3.27.19,4.13a57.39,57.39,0,0,1-3.61,19.74.76.76,0,0,1,.13.51,1.86,1.86,0,0,1-.19.78,5.84,5.84,0,0,1-1,1.16l-.39,1.16-.52-.13c-1.46,1.64-3.24,3.48-5.35,5.55A80.53,80.53,0,0,1,61.73,336a45.08,45.08,0,0,1-7.16,4.64,14.31,14.31,0,0,1-6.45,1.87,5.55,5.55,0,0,1-3-.77,22,22,0,0,0-2.64-1.42l.25-.52a47.85,47.85,0,0,0-13-1.93c.17.77.33,1.55.45,2.32s.28,1.51.46,2.19c0,.95-.39,1.42-1.16,1.42-1,0-1.53-.71-1.75-2.12a25.78,25.78,0,0,1-.32-3.68,56.75,56.75,0,0,0-7.55,1c-2.53.52-5.14,1.12-7.8,1.81a21.56,21.56,0,0,0-3.55,1.35,12.38,12.38,0,0,1-3.81,1.1v-.13a1.36,1.36,0,0,1-.77.13,2.39,2.39,0,0,1-2.19-1.55l2.06-1.16c-.17-.17-.3-.26-.39-.26.09.09.39.13.91.13a4.71,4.71,0,0,0,3.55-1.81,20.47,20.47,0,0,0,2.9-4.32A42.49,42.49,0,0,0,13,329q1-2.78,1.48-4.71a2.18,2.18,0,0,1-1,.39c-.61,0-.95-.43-1-1.29.42-2.84.75-5.65,1-8.45s.33-5.57.33-8.32c0-3.61-.18-7.14-.52-10.58s-.86-7-1.55-10.58c-.43-2.49-.92-5-1.48-7.48A49.64,49.64,0,0,1,9,270.48l2.58.25v1.55a46.94,46.94,0,0,0,1,9.42c.64,3.18,1.14,6.28,1.48,9.29q.64,5.81,1,11.29t.39,11q0,4.51-.39,9.16a1.6,1.6,0,0,1,1.17-.52c.77,0,1.16.47,1.16,1.42-.09.26-.39,1-.91,2.19s-1.18,2.63-2,4.26-1.72,3.31-2.71,5a45.12,45.12,0,0,1-3,4.65l2.71-.78c2.67-.51,5.29-1,7.87-1.42s5.16-.73,7.74-.9Q24.9,318.85,23.74,302t-1.55-34.57h-.65q-2.58.9-5.8,1.74c-2.15.56-4.22,1-6.19,1.42s-3.74.69-5.29.9a27.67,27.67,0,0,1-3.1.33c-.77,0-1.16-.35-1.16-1a1.82,1.82,0,0,1,1-1.54c3.18-.43,6.41-.76,9.68-1a25.34,25.34,0,0,0,9.42-2.52,1.54,1.54,0,0,1,.9-.9h.77l.58-.32a10.26,10.26,0,0,0,1-.71Zm43.09,11.61A24.94,24.94,0,0,0,58,270.86a82.73,82.73,0,0,0-10.13-3l-1,.9a6.09,6.09,0,0,0-3.93-2.07,34.06,34.06,0,0,0-6.13-.51c-2.07,0-4.15.08-6.26.26s-4,.34-5.74.51q0,1.29-.06,2.52c-.05.82-.07,1.61-.07,2.38a15.35,15.35,0,0,0,2-1,17.18,17.18,0,0,1,1.68-.9,10.63,10.63,0,0,1,1.93-.65,12.63,12.63,0,0,1,2.78-.25,27.76,27.76,0,0,1,11.16,2.38L54.7,276l.52-1.42a12.71,12.71,0,0,1,4.38,3.55A27.71,27.71,0,0,1,63,283.63a58.24,58.24,0,0,1,2.65,6.58q1.15,3.5,2.06,6.84l.13-.13a5.68,5.68,0,0,1,1.68,4.39v1a6.43,6.43,0,0,1-.13,1.16.43.43,0,0,1,.13.26,1.14,1.14,0,0,0,.13.52,3.21,3.21,0,0,1-.39,1.42,12.65,12.65,0,0,0-.65,1.54,50.86,50.86,0,0,1-4.38,13.29,33,33,0,0,1-8.77,10.71,1.12,1.12,0,0,1-.78.39,1.17,1.17,0,0,1-1-.65,26.12,26.12,0,0,1-4,4.13A17.83,17.83,0,0,1,44.9,338a5.21,5.21,0,0,0,1.29,1.8,5,5,0,0,0,2.83.52,13.25,13.25,0,0,0,6.46-1.87A38.24,38.24,0,0,0,62,333.76a63.76,63.76,0,0,0,5.87-5.87c1.81-2.07,3.35-3.87,4.64-5.42a64.34,64.34,0,0,0,3.94-10.26,36.1,36.1,0,0,0,1.35-9.74,43.18,43.18,0,0,0-2.71-14.19l-1.41-.39v-.26a6.79,6.79,0,0,0-.78-2.9,26.35,26.35,0,0,0-1.8-3.16,29.42,29.42,0,0,0-2.2-2.9C68.12,277.76,67.43,277,66.83,276.41ZM29.42,336.14a13.22,13.22,0,0,1,1.74-.13h1.61a44.23,44.23,0,0,1,9.93,1.16L42.45,336A13.31,13.31,0,0,0,48.57,334a15.29,15.29,0,0,0,4.2-4.13,26.08,26.08,0,0,0,2.77-5.29q1.1-2.83,2-5.42a1.49,1.49,0,0,1,1.29-.9c.86,0,1.29.52,1.29,1.55-.6,1.29-1.25,2.58-1.94,3.87s-1.41,2.58-2.19,3.87a48.09,48.09,0,0,0,4.45-4.26,21.1,21.1,0,0,0,3-4.26,25.41,25.41,0,0,0,2.06-5.61c.56-2.19,1.14-5,1.75-8.32-.44-1.81-.91-4-1.42-6.71s-1.16-5.33-1.94-8a35.37,35.37,0,0,0-3.1-7.48,13,13,0,0,0-4.9-5.16,1.49,1.49,0,0,1-1.29.9c.09,0-.13-.08-.64-.26a101.42,101.42,0,0,0-9.81-5.22,24.76,24.76,0,0,0-10.45-2.26,13.49,13.49,0,0,0-3.35.32,5.82,5.82,0,0,0-1.94.91c-.51.39-1,.82-1.55,1.29a8.29,8.29,0,0,1-2.19,1.35q0,15.61,1.1,30.71T29.42,336.14Z"/><path class="cls-2" d="M101.79,334.08q.64,1,1.29,2.13a8.09,8.09,0,0,0,1.68,2l.9-.26a5.47,5.47,0,0,0,.65-.26c.94,0,1.42.43,1.42,1.29a1.62,1.62,0,0,1-.52,1.16,5,5,0,0,0,2.32.52l-.51,2.58a13.11,13.11,0,0,1-4.13-2.58c-3,.51-6,1-9.1,1.61s-6.08,1.05-9.09,1.48l-.26-2.58c.43,0,.86,0,1.29.07s.86.06,1.29.06a25.43,25.43,0,0,0,4.26-.38c-.44-.09-.69-.48-.78-1.17q.39-8.5.65-16.83t.25-16.84a.77.77,0,0,1-.12-.51.81.81,0,0,1,.12-.52c0-1.12,0-2.24-.06-3.35s-.06-2.28-.06-3.49l.9.13a9.65,9.65,0,0,0-.39-2.9,1.53,1.53,0,0,0-1.55-1.23,2.36,2.36,0,0,0-1.09.52,3.93,3.93,0,0,1-1.1.64l-.26-.9c-.43.52-.92,1.08-1.48,1.68a2.28,2.28,0,0,1-1.48.9,1,1,0,0,1-1.17-1.16c0-.69.73-1.59,2.2-2.71a55,55,0,0,1,4.84-3.29c1.76-1.07,3.39-2,4.9-2.77A23.38,23.38,0,0,1,100,286l.26.77,2.45.26q-.51,4.26-.77,8.58t-.26,8.58q0,5.42.45,10.64t.45,10.26A54.52,54.52,0,0,1,101.79,334.08Zm-.26-68.89a5,5,0,0,1,1.55,3.61,7.45,7.45,0,0,1-1,3.68A12.68,12.68,0,0,1,97,277.57a5.5,5.5,0,0,1-2.38.77,2.72,2.72,0,0,1-1.94-.9A11.47,11.47,0,0,1,91,275.25a17.5,17.5,0,0,1-1.29-2.65,11.75,11.75,0,0,1-.64-2.12,3.63,3.63,0,0,0-.65.77c-.08.17-.3.26-.64.26a1.14,1.14,0,0,1-1.29-1.29,3.82,3.82,0,0,1,1.22-2.58,16.11,16.11,0,0,1,2.65-2.26A22.32,22.32,0,0,1,93,263.77a9.49,9.49,0,0,1,1.42-.65,6.85,6.85,0,0,1,2.19-.39,5.2,5.2,0,0,1,2.58.65A10.48,10.48,0,0,1,101.53,265.19Zm-.77,6.32a2.24,2.24,0,0,0,.26-1v-1.87a4.78,4.78,0,0,0-.91-3.29,3,3,0,0,0-2.32-1,7.65,7.65,0,0,0-3.87,1.23,15.26,15.26,0,0,0-3.74,3.16l1.55.39a5.29,5.29,0,0,0-.65,2.32,4,4,0,0,0,2.32,3.61l1.68-.39a.58.58,0,0,0,.65.65,3.1,3.1,0,0,0,1.35-.45,11.94,11.94,0,0,0,1.61-1,7.26,7.26,0,0,0,1.36-1.29A4,4,0,0,0,100.76,271.51ZM100,288.67c-1.46.68-2.77,1.29-3.93,1.8a24.56,24.56,0,0,0-3.16,1.68,4.29,4.29,0,0,1,2.51,3.35,24,24,0,0,1,.59,5.29c0,1.21,0,2.39-.07,3.55a3.7,3.7,0,0,1-.45,2.13q-.25,5.8-.45,11.16t-.2,11.16c0,1.89,0,3.76.07,5.61s.11,3.72.19,5.61a1.14,1.14,0,0,1-.64.78,28.92,28.92,0,0,0,4.32-.84q2.13-.58,4.32-1.23a11.81,11.81,0,0,1-2.06-2.06,1.51,1.51,0,0,1-1,.51c-.86,0-1.29-.38-1.29-1.16a3.91,3.91,0,0,1,.13-.77c.09-.34.17-.65.26-.9v-.13l-.26-.78a1,1,0,0,1,.78-1,59.9,59.9,0,0,0,1.09-7.29q.33-3.67.33-7.42,0-6.57-.52-13.16T100,291.37Z"/><path class="cls-2" d="M135,297.18a15.79,15.79,0,0,0-3.49,8,21.2,21.2,0,0,0,.13,2.45c.09.77.17,1.59.26,2.45a1.39,1.39,0,0,1,.64,1.29q-.26,2.46-.64,6.13a74.07,74.07,0,0,0-.39,7.81,39.8,39.8,0,0,0,.91,8.64,8.83,8.83,0,0,0,3.74,5.93,2.57,2.57,0,0,0,1.48.58,7.08,7.08,0,0,1,1.61.33l-.9,2.45a1,1,0,0,1,.13.64c0,.78-.56,1.16-1.68,1.16l-6.51-2.45a19.43,19.43,0,0,0-6.91-1.29,12.58,12.58,0,0,0-3.09.39l-.78.26a16.1,16.1,0,0,0-.38,2.19c-.09.77-.48,1.16-1.16,1.16a1.25,1.25,0,0,1-.78-.32,1.6,1.6,0,0,1-.51-1,4.22,4.22,0,0,1,.06-.64,4.46,4.46,0,0,0,.06-.65,10.31,10.31,0,0,1-2.7.78l-.26-2.58a16.49,16.49,0,0,0,3.48-.39q1.55-8.52,2.9-16.84a106.2,106.2,0,0,0,1.36-17.22q0-2.45-.32-5.81a11,11,0,0,0-1.36-4.9c-.52.52-1,1.1-1.61,1.74a23.05,23.05,0,0,1-1.74,1.81l-1.62,1.48a2,2,0,0,1-1.22.65,1,1,0,0,1-1.16-1.16c0-.43.49-1.06,1.48-1.87s1.87-1.57,2.65-2.26l-1.55-1.68a5,5,0,0,1,3.35-1.8,2.11,2.11,0,0,1,1.55.51,59.43,59.43,0,0,1,5.29-4.26,21.39,21.39,0,0,1,5.93-3l.65,2.58A16.09,16.09,0,0,0,126,290.6a28.54,28.54,0,0,0-4.9,3.74,11.43,11.43,0,0,1,1.55,3.81,18.65,18.65,0,0,1,.52,4.06,150.1,150.1,0,0,1-1.17,18.9q-1.16,9.22-2.32,18.9a5.27,5.27,0,0,1,1.55-.13,48,48,0,0,1,7.48.78q3.36.64,5.94,1.29v-.13a7.32,7.32,0,0,1-2.52-3.29,26.87,26.87,0,0,1-1.55-5.16,46.52,46.52,0,0,1-.77-6.19q-.19-3.3-.19-6.39c0-1.55,0-3,.06-4.45s.11-2.65.19-3.68a1.49,1.49,0,0,1-.51-1c.08-1.2.15-2.34.19-3.42s.11-2.21.19-3.42l-.9-.26a13.28,13.28,0,0,0,1.1-6.19,35.68,35.68,0,0,1,.19-6.45l2.58.26c-.26,1.2-.47,2.34-.64,3.42s-.35,2.13-.52,3.16a32.25,32.25,0,0,1,8-8.39,16.84,16.84,0,0,1,10.06-3.61,1.43,1.43,0,0,1,1,1.42,1,1,0,0,1-.13.64,7.1,7.1,0,0,1,1.93,4.78,7.85,7.85,0,0,1-.58,2.9,10.53,10.53,0,0,1-1.55,2.71,8.64,8.64,0,0,1-2.32,2.06,5.53,5.53,0,0,1-3,.84,4.72,4.72,0,0,1-2.26-.58c-.73-.38-1.48-.81-2.26-1.29s-1.55-.92-2.32-1.35a6.25,6.25,0,0,0-2.32-.78c-.09,0-.22.09-.39.26Zm12.64-7.87a14.56,14.56,0,0,0-6.26,1.94,19.19,19.19,0,0,0-5.09,4.25,4.36,4.36,0,0,1,2.45.78A26.45,26.45,0,0,1,141,298c.77.64,1.55,1.22,2.32,1.74a4.32,4.32,0,0,0,2.45.77,3.86,3.86,0,0,0,3.61-2,7.52,7.52,0,0,0,1.17-3.8,4.43,4.43,0,0,0-.46-1.87,7.6,7.6,0,0,0-1-1.68c-.38-.47-.73-.88-1-1.22S147.59,289.4,147.59,289.31Z"/><path class="cls-2" d="M158.3,333.3q-1.56-5.93-3.1-11.67a45.78,45.78,0,0,1-1.55-11.94,18.64,18.64,0,0,1,.71-5.16,18.09,18.09,0,0,0,.71-5l2.58.26a28,28,0,0,1-1.42,5.16,15.78,15.78,0,0,0-.9,5.68,37.74,37.74,0,0,0,1.74,11.61q1.74,5.42,4.06,11.22v.91a27.72,27.72,0,0,0,5.23,4.77,15.79,15.79,0,0,0,7.16,2.32c.6.26.94.56,1,.9l1-.77a1.07,1.07,0,0,0,.84.52,5.48,5.48,0,0,1,1.1.13,24.53,24.53,0,0,0,7.61-2,24.28,24.28,0,0,0,6.39-4.13,18.79,18.79,0,0,0,4.38-5.94,17.35,17.35,0,0,0,1.62-7.54v-1.16a1.34,1.34,0,0,1,.51-.91,1.42,1.42,0,0,1,.78-.26,1.35,1.35,0,0,1,1.29,1,18.8,18.8,0,0,1-4.2,12.25,34.14,34.14,0,0,1-10.38,8.52,32.67,32.67,0,0,1-3.81,1.67,13,13,0,0,1-4.58.91,4.09,4.09,0,0,1-3-.91A1.7,1.7,0,0,1,173,344a26.52,26.52,0,0,1-8.25-4.13q-3.62-2.7-7.23-5.93Zm38.31-22.19a4.27,4.27,0,0,1-3.35,1.29,13.35,13.35,0,0,1-2.2-.19A12.5,12.5,0,0,0,189,312q-6.58.12-12.38.71a59.94,59.94,0,0,0-12,2.51q.65,7.36,4.32,11t11.42,3.94a1.36,1.36,0,0,1,1,1.29,1.39,1.39,0,0,1-.26.77,1.34,1.34,0,0,1-.9.52q-8.13-1.29-12.71-6.39a23.68,23.68,0,0,1-5.61-13.22h1a1,1,0,0,1,.26-.2,1,1,0,0,0,.26-.19,63.94,63.94,0,0,1,7.48-1.1c2.49-.21,5-.38,7.48-.51l7.55-.39a68.26,68.26,0,0,0,7.68-.84h.12a.3.3,0,0,0,.2-.06.26.26,0,0,1,.19-.07,42.43,42.43,0,0,0-1.16-7.48,25.4,25.4,0,0,0-2.65-6.64,19.3,19.3,0,0,0-4.45-5.29,16.84,16.84,0,0,0-6.7-3.29l.12.51a19.76,19.76,0,0,0-6.83,1.68,21.15,21.15,0,0,0-5.61,3.74,27.1,27.1,0,0,0-4.46,5.36,46.49,46.49,0,0,0-3.35,6.25,1.85,1.85,0,0,1-1.55,1c-.69,0-1-.39-1-1.17V304q1.94-3.11,4.06-6.07a38.24,38.24,0,0,1,4.71-5.41,34.11,34.11,0,0,1,5.61-4.33,23.49,23.49,0,0,1,6.65-2.77c.08-.77.56-1.16,1.42-1.16a21.39,21.39,0,0,1,7.42,4.19,26.83,26.83,0,0,1,5.29,6.32,33.91,33.91,0,0,1,3.35,7.68,50.21,50.21,0,0,1,1.74,8.39h.13v.25Zm-12.25-4.77.25,1.81h-1.93a49,49,0,0,0-9.48.9,83.78,83.78,0,0,1-9.49,1.29q-1.29-.39-1.29-1.29a1.24,1.24,0,0,1,.91-1.16c-.61-.09-.91-.52-.91-1.29v-.39a34.39,34.39,0,0,1,7-9.48q3.87-3.56,7.48-3.55a7.06,7.06,0,0,1,5.55,3q2.45,3,3.74,10ZM164,307.76a8.89,8.89,0,0,1,1,.06,8.27,8.27,0,0,0,1.17.07,46.7,46.7,0,0,0,8.57-.78q4.2-.76,8.71-1.41a33.77,33.77,0,0,0-.77-3.94,15.35,15.35,0,0,0-1.42-3.61,8,8,0,0,0-2.19-2.58,4.79,4.79,0,0,0-3-1,6.23,6.23,0,0,0-3.61,1.16,13.09,13.09,0,0,0-3,3,26.65,26.65,0,0,0-2.46,3.93q-1.09,2.13-2,4.2A1.94,1.94,0,0,1,164,307.76Zm29.29,20.13a45.81,45.81,0,0,1-6.71,5.48,68.77,68.77,0,0,1-7.61,4.45h-.52c-.77,0-1.16-.34-1.16-1a1.84,1.84,0,0,1,1-1.55,43.15,43.15,0,0,0,4.58-1.55,14.11,14.11,0,0,0,3.29-1.87,20.42,20.42,0,0,0,2.65-2.45c.81-.9,1.69-2,2.64-3.29Z"/><path class="cls-2" d="M219.58,294.86a19.18,19.18,0,0,0-.65,5.35c0,2.11,0,3.94-.13,5.49s-.15,3-.19,4.51-.07,3.14-.07,4.77a55.42,55.42,0,0,0,1.29,11.94,19.13,19.13,0,0,0,5.68,10c0,.17,0,.25.13.25a11.17,11.17,0,0,0,1.48-1.09l1.62-1.36c.51-.43,1-.81,1.48-1.16a2.18,2.18,0,0,1,1.1-.51,1,1,0,0,1,1.16,1.16,1.7,1.7,0,0,1-.39,1,41.12,41.12,0,0,1-6.9,4.32,15,15,0,0,1-6.52,1.74,7.52,7.52,0,0,1-3.54-.84,6.2,6.2,0,0,1-2.65-2.9c-.52,0-.95-.54-1.29-1.61a29,29,0,0,1-.9-4.06,49.59,49.59,0,0,1-.52-5.55q-.12-3.1-.26-6.07c-.08-2-.13-3.8-.13-5.48V311c0-1.8,0-3.63.07-5.48s.06-3.68.06-5.48q0-.78-.06-2.13c0-.9-.11-1.91-.19-3-1,.08-2,.19-3,.32a21.91,21.91,0,0,1-3,.19,4.66,4.66,0,0,1-2.32-.51c.09,0,.13,0,.13-.07s0-.06.13-.06l-1.55-1.55.39-.39a1.49,1.49,0,0,1,1-.51,9.89,9.89,0,0,0,1.16.39,4.77,4.77,0,0,1,1,.38q1.43,0,3-.06c1-.05,2-.07,3-.07,0-.68,0-1.31.06-1.87s.11-1.14.19-1.74c-.51.43-1.18,1-2,1.74a3.48,3.48,0,0,1-1.87,1.1,1.14,1.14,0,0,1-1.29-1.29c0-.52.63-1.16,1.87-1.94a38.26,38.26,0,0,0,3.68-2.58,3.93,3.93,0,0,1,.65-1.54l.64.38a22.72,22.72,0,0,0,4.32-5.29,15.12,15.12,0,0,0,2.13-7l2.58.25-.51,1.55c-.18.52-.35,1-.52,1.55h.52c-.18,2.58-.41,5.25-.71,8s-.67,5.55-1.1,8.39q4.13-.14,8.13-.52a70.1,70.1,0,0,0,8.12-1.29c1,0,1.55.43,1.55,1.29,0,.52-.45.9-1.35,1.16a19,19,0,0,1-3.36.58c-1.33.13-2.77.22-4.32.26s-3,.06-4.25.06h-3a.91.91,0,0,1,.26.65Zm-6.2,37.67c.18,2.75.73,4.67,1.68,5.74a4.45,4.45,0,0,0,3.48,1.61,10.19,10.19,0,0,0,4.91-1.42,18.7,18.7,0,0,1-3.55-5.35,32.26,32.26,0,0,1-2.07-6.39,45.63,45.63,0,0,1-.9-7q-.19-3.61-.19-7.1c0-1.89,0-3.69.06-5.42s.07-3.31.07-4.77q-.27,3.22-.52,6.32t-.26,6.19a70.63,70.63,0,0,0,.78,10.58,43.25,43.25,0,0,0,2.71,9.94.53.53,0,0,0,.06.32.27.27,0,0,1,.07.19,1.14,1.14,0,0,1-1.29,1.29c-.78,0-1.4-.68-1.88-2.06a26.73,26.73,0,0,1-1.09-4.77q-.39-2.72-.52-5.49c-.08-1.85-.13-3.24-.13-4.19.09-2.24.17-4.45.26-6.64s.21-4.41.39-6.65l.77-13.16c-.86.09-1.7.15-2.51.2s-1.62.11-2.39.19c-.09,1.89-.17,3.5-.26,4.84s-.15,2.56-.19,3.67-.07,2.2-.07,3.23V310a122.85,122.85,0,0,0,2.07,22.58Zm3.62-52c-.69.95-1.36,1.78-2,2.51a14.3,14.3,0,0,0-1.68,2.33,14,14,0,0,0-1.23,3,19.21,19.21,0,0,0-.64,4.45h2.39c.81,0,1.65,0,2.51-.12q.26-3,.39-6C216.82,284.65,216.91,282.6,217,280.54Z"/><path class="cls-2" d="M241.77,297.83a7.68,7.68,0,0,0-3.23,5,33,33,0,0,0-.9,8.07,59.33,59.33,0,0,0,.58,8.19c.38,2.79.84,5.31,1.35,7.55l.78-.13q.51,5.8,3.93,8.9a15,15,0,0,0,8.32,3.74,34.76,34.76,0,0,1-5-9.93,1.27,1.27,0,0,1-.9.38c-.69,0-1.12-.64-1.29-1.93a29,29,0,0,1-.26-4v-3c0-1.89.08-4.06.26-6.51a43.07,43.07,0,0,1,1.09-7.16,26.83,26.83,0,0,1,2.39-6.39,10.57,10.57,0,0,1,4-4.32,39.31,39.31,0,0,0,3.87-2.58,6.33,6.33,0,0,1,3.48-1.55,9.19,9.19,0,0,1,5,1.74,17.72,17.72,0,0,1,4.06,4.13,35.9,35.9,0,0,1,3.23,5.48c.95,2,1.76,3.92,2.45,5.81a1,1,0,0,1,1.16-.91c.52,0,.93.35,1.23,1a9.29,9.29,0,0,1,.64,2.45c.13.95.22,1.91.26,2.9s.07,1.79.07,2.39a28.7,28.7,0,0,1-2.71,12.25,38.84,38.84,0,0,0,6.19-8,19.9,19.9,0,0,0,2.45-10.07,7.45,7.45,0,0,0-.71-3.35,8.64,8.64,0,0,1-.84-3.23h.13a25.08,25.08,0,0,0-7.74-9.67q-4.77-3.5-12.51-4v.13a41.72,41.72,0,0,0-6.65.51,19.73,19.73,0,0,0-5.8,1.87,15.84,15.84,0,0,0-4.65,3.61,16.46,16.46,0,0,0-3.16,5.87,1.85,1.85,0,0,1-1.55,1c-.69,0-1-.39-1-1.16v-.52a20.18,20.18,0,0,1,9-9.8,39.05,39.05,0,0,1,12.9-3.88v-.38a28.25,28.25,0,0,1,13.81,5.35,35.85,35.85,0,0,1,9.42,10.9h.38v.65c.43.69.95,1.61,1.55,2.77a6.55,6.55,0,0,1,.9,2.52c0,.77-.43,1.16-1.29,1.16a22.6,22.6,0,0,1-3.22,10.71c.6.08.9.56.9,1.42a39.55,39.55,0,0,1-10.32,12.83,31.5,31.5,0,0,1-15,6.52l-.25-1.55a.53.53,0,0,1-.39.13,26.63,26.63,0,0,1-10.32-2.26,17.27,17.27,0,0,1-7.61-6.51,1.43,1.43,0,0,1-.78.13c-.43,0-.84-.84-1.22-2.52a60,60,0,0,1-1-6.26c-.31-2.49-.54-5.18-.71-8.06s-.26-5.57-.26-8.06a33.27,33.27,0,0,1,.77-8.45,6.65,6.65,0,0,1,3.36-4.07Zm7.09,25.41v1.42a17.42,17.42,0,0,0,1.81,8.06,22.63,22.63,0,0,0,5.29,6.65h.9v-.26l2.45-.9c0,.25.17.38.52.38a18.34,18.34,0,0,0,5.22-.77,13.23,13.23,0,0,0,4.45-2.19.43.43,0,0,1-.13-.26c0-.43.48-1,1.42-1.81s1.72-1.37,2.33-1.8a17.59,17.59,0,0,0,2.51-5.68,25.63,25.63,0,0,0,.71-5.93c0-.61,0-1.19-.06-1.75s-.11-1.18-.2-1.87c-.08.09-.3.13-.64.13s-.78-.3-1-.9c-.35-1.38-.84-3.29-1.49-5.74a42.24,42.24,0,0,0-2.58-7.16,27.74,27.74,0,0,0-3.74-6.07,6.31,6.31,0,0,0-5-2.58,2.83,2.83,0,0,0-2.06.65,4.06,4.06,0,0,1-1.61,1.68,26.61,26.61,0,0,1-2.39,1.22q-1.29.58-2.58,1.29a7,7,0,0,0-2.19,1.87,18.56,18.56,0,0,0-3.23,6.77,31.71,31.71,0,0,0-.9,7.55c0,1.38.06,2.76.19,4.13s.28,2.71.45,4Zm22.06,13.42a6.69,6.69,0,0,1-1.42,1,4,4,0,0,0,1.1-.64,4.45,4.45,0,0,1,1-.65,1.14,1.14,0,0,1-.52.13C271,336.53,270.92,336.57,270.92,336.66Zm7.87-8c-1.2,1.46-2.41,2.82-3.61,4.06s-2.41,2.48-3.61,3.68A22.35,22.35,0,0,0,278.79,328.66Z"/><path class="cls-2" d="M341.1,264.8c1.46,0,3.18,0,5.16-.07s4-.06,5.94-.06c1.72,0,3.33,0,4.83.13s3,.21,4.33.39a1.37,1.37,0,0,1,1.29-.65q4.38,1.43,8.64,3a52.06,52.06,0,0,1,8.06,3.87,38.75,38.75,0,0,1,7,5.36,34.89,34.89,0,0,1,5.8,7.48c.08-.09.3-.13.65-.13.68,0,1.29.73,1.8,2.19a29.15,29.15,0,0,1,1.23,5.1c.3,1.93.51,3.85.64,5.74s.2,3.27.2,4.13a57.41,57.41,0,0,1-3.62,19.74.71.71,0,0,1,.13.51,1.72,1.72,0,0,1-.19.78,5.5,5.5,0,0,1-1,1.16l-.39,1.16-.51-.13c-1.47,1.64-3.25,3.48-5.36,5.55a80.38,80.38,0,0,1-6.7,5.87,46,46,0,0,1-7.16,4.64,14.32,14.32,0,0,1-6.46,1.87,5.55,5.55,0,0,1-3-.77,22,22,0,0,0-2.64-1.42l.26-.52a47.9,47.9,0,0,0-13-1.93c.17.77.32,1.55.45,2.32s.28,1.51.45,2.19c0,.95-.39,1.42-1.16,1.42-.95,0-1.53-.71-1.74-2.12a24.56,24.56,0,0,1-.33-3.68,56.61,56.61,0,0,0-7.54,1q-3.81.78-7.81,1.81a21.91,21.91,0,0,0-3.55,1.35,12.4,12.4,0,0,1-3.8,1.1v-.13a1.43,1.43,0,0,1-.78.13,2.41,2.41,0,0,1-2.19-1.55l2.06-1.16c-.17-.17-.3-.26-.38-.26.08.09.38.13.9.13a4.71,4.71,0,0,0,3.55-1.81,20.47,20.47,0,0,0,2.9-4.32,42.49,42.49,0,0,0,2.26-5.29c.64-1.85,1.14-3.42,1.48-4.71a2.18,2.18,0,0,1-1,.39c-.6,0-.95-.43-1-1.29.43-2.84.75-5.65,1-8.45s.32-5.57.32-8.32a104.55,104.55,0,0,0-.52-10.58q-.51-5.16-1.55-10.58c-.43-2.49-.92-5-1.48-7.48a50.94,50.94,0,0,1-1.1-7.48l2.58.25v1.55a47.68,47.68,0,0,0,1,9.42c.65,3.18,1.14,6.28,1.49,9.29q.63,5.81,1,11.29c.26,3.65.38,7.33.38,11,0,3-.12,6.06-.38,9.16a1.58,1.58,0,0,1,1.16-.52c.77,0,1.16.47,1.16,1.42q-.13.39-.9,2.19t-2,4.26c-.82,1.64-1.72,3.31-2.71,5a46.84,46.84,0,0,1-3,4.65l2.71-.78c2.66-.51,5.28-1,7.87-1.42s5.16-.73,7.74-.9q-2.2-17.55-3.36-34.45t-1.55-34.57h-.64q-2.58.9-5.81,1.74t-6.19,1.42q-3,.58-5.29.9a27.67,27.67,0,0,1-3.1.33c-.77,0-1.16-.35-1.16-1a1.84,1.84,0,0,1,1-1.54c3.18-.43,6.4-.76,9.67-1a25.29,25.29,0,0,0,9.42-2.52,1.54,1.54,0,0,1,.9-.9h.78l.58-.32c.21-.13.53-.37,1-.71Zm43.09,11.61a24.94,24.94,0,0,0-8.84-5.55,82.58,82.58,0,0,0-10.12-3l-1,.9a6.09,6.09,0,0,0-3.93-2.07,34,34,0,0,0-6.13-.51c-2.06,0-4.15.08-6.26.26s-4,.34-5.74.51q0,1.29-.06,2.52c-.05.82-.07,1.61-.07,2.38a15.35,15.35,0,0,0,2-1,17.18,17.18,0,0,1,1.68-.9,10.74,10.74,0,0,1,1.94-.65,12.53,12.53,0,0,1,2.77-.25,27.76,27.76,0,0,1,11.16,2.38L372.06,276l.52-1.42a12.74,12.74,0,0,1,4.39,3.55,27.71,27.71,0,0,1,3.42,5.48,58.22,58.22,0,0,1,2.64,6.58q1.16,3.5,2.07,6.84l.12-.13a5.68,5.68,0,0,1,1.68,4.39v1a5.64,5.64,0,0,1-.13,1.16.38.38,0,0,1,.13.26,1.14,1.14,0,0,0,.13.52,3.21,3.21,0,0,1-.39,1.42,12.56,12.56,0,0,0-.64,1.54,51.24,51.24,0,0,1-4.39,13.29,33,33,0,0,1-8.77,10.71,1.12,1.12,0,0,1-.78.39,1.17,1.17,0,0,1-1-.65,25.69,25.69,0,0,1-4,4.13,17.83,17.83,0,0,1-4.77,2.84,5.35,5.35,0,0,0,1.29,1.8,5,5,0,0,0,2.84.52,13.24,13.24,0,0,0,6.45-1.87,37.85,37.85,0,0,0,6.51-4.64,62.54,62.54,0,0,0,5.87-5.87c1.81-2.07,3.36-3.87,4.65-5.42a64.24,64.24,0,0,0,3.93-10.26,35.72,35.72,0,0,0,1.36-9.74,43.44,43.44,0,0,0-2.71-14.19l-1.42-.39v-.26a6.91,6.91,0,0,0-.77-2.9,26.44,26.44,0,0,0-1.81-3.16,31,31,0,0,0-2.19-2.9C385.48,277.76,384.79,277,384.19,276.41Zm-37.41,59.73a13.22,13.22,0,0,1,1.74-.13h1.61a44.39,44.39,0,0,1,9.94,1.16l-.26-1.16a13.35,13.35,0,0,0,6.13-2.06,15.39,15.39,0,0,0,4.19-4.13,25.59,25.59,0,0,0,2.77-5.29q1.1-2.83,2-5.42a1.51,1.51,0,0,1,1.29-.9c.86,0,1.29.52,1.29,1.55-.6,1.29-1.25,2.58-1.93,3.87s-1.42,2.58-2.2,3.87a49.66,49.66,0,0,0,4.46-4.26,21.06,21.06,0,0,0,3-4.26,25.4,25.4,0,0,0,2.07-5.61c.56-2.19,1.14-5,1.74-8.32-.43-1.81-.9-4-1.42-6.71s-1.16-5.33-1.94-8a35.88,35.88,0,0,0-3.09-7.48,13,13,0,0,0-4.9-5.16,1.51,1.51,0,0,1-1.29.9c.08,0-.13-.08-.65-.26a102.46,102.46,0,0,0-9.8-5.22A24.8,24.8,0,0,0,351,270.86a13.58,13.58,0,0,0-3.36.32,5.77,5.77,0,0,0-1.93.91,20,20,0,0,0-1.55,1.29,8.54,8.54,0,0,1-2.2,1.35q0,15.61,1.1,30.71T346.78,336.14Z"/><path class="cls-2" d="M409.48,297.83a7.68,7.68,0,0,0-3.23,5,33,33,0,0,0-.9,8.07,59.33,59.33,0,0,0,.58,8.19q.58,4.18,1.35,7.55l.78-.13q.51,5.8,3.93,8.9a15,15,0,0,0,8.32,3.74,35,35,0,0,1-5-9.93,1.27,1.27,0,0,1-.9.38c-.69,0-1.12-.64-1.29-1.93a30.66,30.66,0,0,1-.26-4v-3q0-2.84.26-6.51a43.08,43.08,0,0,1,1.1-7.16,26.39,26.39,0,0,1,2.38-6.39,10.57,10.57,0,0,1,4-4.32,37.08,37.08,0,0,0,3.87-2.58,6.33,6.33,0,0,1,3.49-1.55,9.19,9.19,0,0,1,5,1.74A17.76,17.76,0,0,1,437,298a36.7,36.7,0,0,1,3.22,5.48c.95,2,1.76,3.92,2.45,5.81a1,1,0,0,1,1.16-.91c.52,0,.93.35,1.23,1a9.28,9.28,0,0,1,.65,2.45c.12.95.21,1.91.25,2.9s.07,1.79.07,2.39a28.56,28.56,0,0,1-2.71,12.25,38.5,38.5,0,0,0,6.19-8,19.9,19.9,0,0,0,2.45-10.07,7.32,7.32,0,0,0-.71-3.35,8.64,8.64,0,0,1-.84-3.23h.13a25.08,25.08,0,0,0-7.74-9.67q-4.77-3.5-12.51-4v.13a41.81,41.81,0,0,0-6.65.51,19.83,19.83,0,0,0-5.8,1.87,16,16,0,0,0-4.65,3.61,16.46,16.46,0,0,0-3.16,5.87,1.84,1.84,0,0,1-1.54,1c-.69,0-1-.39-1-1.16v-.52a20.18,20.18,0,0,1,9-9.8,39,39,0,0,1,12.91-3.88v-.38a28.25,28.25,0,0,1,13.8,5.35,35.85,35.85,0,0,1,9.42,10.9H453v.65c.43.69.95,1.61,1.55,2.77a6.62,6.62,0,0,1,.91,2.52c0,.77-.44,1.16-1.29,1.16a22.73,22.73,0,0,1-3.23,10.71c.6.08.9.56.9,1.42a39.29,39.29,0,0,1-10.32,12.83,31.51,31.51,0,0,1-15,6.52l-.26-1.55a.53.53,0,0,1-.39.13,26.63,26.63,0,0,1-10.32-2.26,17.27,17.27,0,0,1-7.61-6.51,1.41,1.41,0,0,1-.77.13c-.44,0-.84-.84-1.23-2.52a60,60,0,0,1-1-6.26q-.45-3.73-.71-8.06t-.26-8.06a33.27,33.27,0,0,1,.77-8.45,6.68,6.68,0,0,1,3.36-4.07Zm7.09,25.41v1.42a17.42,17.42,0,0,0,1.81,8.06,22.8,22.8,0,0,0,5.29,6.65h.9v-.26l2.45-.9c0,.25.17.38.52.38a18.34,18.34,0,0,0,5.22-.77,13.28,13.28,0,0,0,4.46-2.19.38.38,0,0,1-.13-.26c0-.43.47-1,1.42-1.81s1.72-1.37,2.32-1.8a17.59,17.59,0,0,0,2.51-5.68,25.63,25.63,0,0,0,.71-5.93c0-.61,0-1.19-.06-1.75s-.11-1.18-.2-1.87c-.08.09-.3.13-.64.13s-.77-.3-1-.9c-.35-1.38-.84-3.29-1.49-5.74a42.24,42.24,0,0,0-2.58-7.16,27.74,27.74,0,0,0-3.74-6.07,6.29,6.29,0,0,0-5-2.58,2.84,2.84,0,0,0-2.07.65,4,4,0,0,1-1.61,1.68,25.34,25.34,0,0,1-2.39,1.22q-1.29.58-2.58,1.29a7,7,0,0,0-2.19,1.87,18.56,18.56,0,0,0-3.23,6.77,31.71,31.71,0,0,0-.9,7.55c0,1.38.06,2.76.19,4.13s.28,2.71.45,4Zm22.06,13.42a6.6,6.6,0,0,1-1.41,1,4,4,0,0,0,1.09-.64,4.7,4.7,0,0,1,1-.65,1.08,1.08,0,0,1-.52.13A.12.12,0,0,0,438.63,336.66Zm7.87-8c-1.2,1.46-2.4,2.82-3.61,4.06s-2.41,2.48-3.61,3.68A22.35,22.35,0,0,0,446.5,328.66Z"/><path class="cls-2" d="M505.59,268.93a28.87,28.87,0,0,1,5-1,55.35,55.35,0,0,1,7.1-.45,15.53,15.53,0,0,1,4.77.71,12.05,12.05,0,0,0,3.35.71,7.39,7.39,0,0,0,3.68-.84c1-.56,2.21-1.18,3.68-1.87l.64,2.58a13.42,13.42,0,0,0-4.13,1.16,29.53,29.53,0,0,1-4.12,1.55q-1,0-1.17-.78v.13a3.41,3.41,0,0,0-2.19-1.42,14.78,14.78,0,0,0-3.48-.38,33.52,33.52,0,0,0-5.36.45,35,35,0,0,0-4.83,1.09,3.11,3.11,0,0,1,1.16-.25h2.71a20.94,20.94,0,0,1,11.41,3.29,27.48,27.48,0,0,1,8.84,9.22,7.77,7.77,0,0,0,.58,1l.71,1a12.34,12.34,0,0,1-.13-1.81v-1.81q0-3.6.26-7.16c.17-2.36.26-4.71.26-7l2.58.26c-.35,3-.67,5.66-1,7.93a51,51,0,0,0-.45,6.65,27.07,27.07,0,0,0,.45,4.9,25.14,25.14,0,0,0,1.74,5.42c0,.17,0,.28.07.32a.3.3,0,0,1,.06.2,1.14,1.14,0,0,1-1.29,1.29,1.32,1.32,0,0,1-1.1-.71,6.44,6.44,0,0,1-.71-1.68,14.42,14.42,0,0,1-.38-2,13.41,13.41,0,0,1-.13-1.68l-1.81-.51V287a2.52,2.52,0,0,0-.64-1.48,6.93,6.93,0,0,1-.91-1.49q-6.18-11.86-17.28-11.87a22.14,22.14,0,0,0-11.23,3.23h-.26a13.61,13.61,0,0,0-2.32,7.09,10.66,10.66,0,0,0,1.36,5.29,17.57,17.57,0,0,0,3.61,4.52,33.16,33.16,0,0,0,5.1,3.8,61.6,61.6,0,0,0,5.8,3.16,1.89,1.89,0,0,1,.65,1.29,1,1,0,0,1-1.16,1.17l-.78-.26a68.18,68.18,0,0,1-5.93-4.07,37.88,37.88,0,0,1-5.29-4.83,22.27,22.27,0,0,1-3.74-5.68,15.83,15.83,0,0,1-1.42-6.71,7.63,7.63,0,0,1,.9-4.32c.6-.82,1.29-1.83,2.06-3l.26.26c.52-.18,1.12-.41,1.81-.71s1.37-.58,2.06-.84a1.22,1.22,0,0,1-.77-.91,13.68,13.68,0,0,0-5,1.88,13.93,13.93,0,0,0-3.55,3.16,12.88,12.88,0,0,1-1,2.51l-1.17,2.19a13.4,13.4,0,0,0-1,2.39,10.28,10.28,0,0,0-.39,3,14.19,14.19,0,0,0,1,5.55,21.16,21.16,0,0,0,2.65,4.58,22,22,0,0,0,3.8,3.87c1.46,1.16,3,2.25,4.52,3.29v-.13c0-.86.47-1.29,1.42-1.29q3.87,1.29,7.93,3.09a44.67,44.67,0,0,1,7.61,4.32,32.91,32.91,0,0,1,6.32,5.87,23.61,23.61,0,0,1,4.2,7.62,7.15,7.15,0,0,0,.32-1.81,1,1,0,0,1,1.1-1c.86,0,1.29.52,1.29,1.55a28.89,28.89,0,0,1-2.39,7.42,25.45,25.45,0,0,1-4.45,6.57,21.72,21.72,0,0,1-6.39,4.71,18.53,18.53,0,0,1-8.32,1.81H512a1.93,1.93,0,0,1-.9-.19,5.57,5.57,0,0,1-1.16-1l2.19-1.29c0,.08.34.13,1,.13A18,18,0,0,0,524.42,336a18.23,18.23,0,0,0,6.33-8.45l-.26-1.16c-.26.26-.43.38-.52.38v-.9a11,11,0,0,0-.51-3.22,18.06,18.06,0,0,0-1-2.71,22.65,22.65,0,0,0-9-10.26,43.92,43.92,0,0,0-12.64-5.1,2.77,2.77,0,0,0,.84.78,1,1,0,0,1,.45.9,1,1,0,0,1-1.16,1.16l-.78-.26c-2.23-1.71-4.3-3.39-6.19-5a31.9,31.9,0,0,1-4.84-5.16,21.32,21.32,0,0,1-3.09-6,23.84,23.84,0,0,1-1.1-7.54V281.7c-.77-.09-1.16-.47-1.16-1.16a2.2,2.2,0,0,1,.52-1.23c.34-.47.73-1,1.16-1.48s.84-1.05,1.22-1.61a3.94,3.94,0,0,0,.71-1.75l1,.26a30.87,30.87,0,0,1,5.1-4.32,16.3,16.3,0,0,1,6.13-2.51Zm-14.32,49c.08-.77.47-1.16,1.16-1.16a1.1,1.1,0,0,1,.77.39l1.16-.39a9.92,9.92,0,0,1,.84,3.61,16.84,16.84,0,0,0,.58,3.74,28.87,28.87,0,0,0,2.71,7.55,20.11,20.11,0,0,0,4.13,5.23,24,24,0,0,0,5.68,3.74q3.22,1.54,7.35,3.09a1.76,1.76,0,0,1,.78,1.29c0,.78-.57,1.17-1.68,1.17q-4.26-2.07-7.68-4.07a30,30,0,0,1-6.13-4.71c-.08.26-.38.48-.9.65s-1.12.38-1.81.64a21.6,21.6,0,0,0-2.06.91,4.45,4.45,0,0,0-1.68,1.41c.09.61.15,1.19.2,1.75s.1,1.18.19,1.87a.71.71,0,0,1-.13.51v.13c0,.17-.15.35-.45.52a1.63,1.63,0,0,1-.71.26c-.6,0-.9-.18-.9-.52l-.39-.39v-.38l-1.42-.13a5.29,5.29,0,0,1,.9-2.39,4.1,4.1,0,0,0,.65-2.52q0-5.42-.45-10.9C491.68,325.2,491.44,321.56,491.27,318Zm3.09,20.9a13.38,13.38,0,0,1,5.16-3.09,26.58,26.58,0,0,1-3.67-5.36,20.51,20.51,0,0,1-2.39-7v1.68q0,3.61.26,7C493.89,334.36,494.11,336.62,494.36,338.85Zm13.16-48.12a20.51,20.51,0,0,0,6.13,4.19c2.37,1.08,4.58,2.22,6.65,3.42l11.16,6.45c3.56,2.07,7.16,4.3,10.77,6.71a1.85,1.85,0,0,1,.64,1.29,1,1,0,0,1-1.16,1.16,5.15,5.15,0,0,1,1.36,2.78,17.89,17.89,0,0,1,.32,3.16,16.92,16.92,0,0,1-1.49,6.77,30.1,30.1,0,0,1-3.8,6.45,30.48,30.48,0,0,1-5.23,5.35,21.13,21.13,0,0,1-5.61,3.36,7.86,7.86,0,0,1-2.26.71c-.81.13-1.61.28-2.38.45L522,340.4a10.88,10.88,0,0,1,2.33-.26,6.16,6.16,0,0,0,2.19-.39,18.64,18.64,0,0,0,5.16-2.7,25.59,25.59,0,0,0,4.84-4.52,26,26,0,0,0,3.54-5.61,14,14,0,0,0,1.42-6,8.31,8.31,0,0,0-1.35-5q-1.35-1.86-3.29-4.19c-.17-.52-.26-.73-.26-.65a1,1,0,0,1,.13-.64c-2.24-1.72-4.47-3.33-6.71-4.84s-4.6-2.94-7.09-4.32a59.93,59.93,0,0,0-8.71-4,29.6,29.6,0,0,1-8.32-4.64Z"/><path class="cls-2" d="M567.51,334.08q.65,1,1.29,2.13a8.09,8.09,0,0,0,1.68,2l.9-.26a5.47,5.47,0,0,0,.65-.26c.94,0,1.42.43,1.42,1.29a1.62,1.62,0,0,1-.52,1.16,5,5,0,0,0,2.32.52l-.51,2.58a13.11,13.11,0,0,1-4.13-2.58q-4.51.76-9.1,1.61t-9.09,1.48l-.26-2.58c.43,0,.86,0,1.29.07s.86.06,1.29.06a25.33,25.33,0,0,0,4.26-.38q-.64-.14-.78-1.17.39-8.5.65-16.83t.26-16.84a.71.71,0,0,1-.13-.51.74.74,0,0,1,.13-.52c0-1.12,0-2.24-.07-3.35s-.06-2.28-.06-3.49l.9.13a9.65,9.65,0,0,0-.39-2.9,1.52,1.52,0,0,0-1.54-1.23,2.35,2.35,0,0,0-1.1.52,3.79,3.79,0,0,1-1.1.64l-.25-.9c-.44.52-.93,1.08-1.49,1.68a2.26,2.26,0,0,1-1.48.9,1,1,0,0,1-1.16-1.16c0-.69.73-1.59,2.19-2.71a55,55,0,0,1,4.84-3.29c1.76-1.07,3.39-2,4.9-2.77a21.72,21.72,0,0,1,2.39-1.16l.25.77,2.46.26q-.52,4.26-.78,8.58t-.26,8.58q0,5.42.46,10.64t.45,10.26A54.56,54.56,0,0,1,567.51,334.08Zm-.25-68.89a4.94,4.94,0,0,1,1.54,3.61,7.54,7.54,0,0,1-1,3.68,12.59,12.59,0,0,1-2.33,3,12.73,12.73,0,0,1-2.83,2.06,5.53,5.53,0,0,1-2.39.77,2.72,2.72,0,0,1-1.94-.9,11.05,11.05,0,0,1-1.67-2.19,15.79,15.79,0,0,1-1.29-2.65,12,12,0,0,1-.65-2.12,3.5,3.5,0,0,0-.64.77c-.09.17-.31.26-.65.26a1.14,1.14,0,0,1-1.29-1.29,3.79,3.79,0,0,1,1.23-2.58,15.64,15.64,0,0,1,2.64-2.26,23.11,23.11,0,0,1,2.71-1.61,9.49,9.49,0,0,1,1.42-.65,6.85,6.85,0,0,1,2.19-.39,5.2,5.2,0,0,1,2.58.65A10.52,10.52,0,0,1,567.26,265.19Zm-.78,6.32a2.24,2.24,0,0,0,.26-1v-1.87a4.78,4.78,0,0,0-.9-3.29,3,3,0,0,0-2.33-1,7.65,7.65,0,0,0-3.87,1.23,15.45,15.45,0,0,0-3.74,3.16l1.55.39a5.26,5.26,0,0,0-.64,2.32,4,4,0,0,0,2.32,3.61l1.67-.39a.58.58,0,0,0,.65.65,3.1,3.1,0,0,0,1.35-.45,12.71,12.71,0,0,0,1.62-1,7.52,7.52,0,0,0,1.35-1.29A4,4,0,0,0,566.48,271.51Zm-.77,17.16c-1.47.68-2.78,1.29-3.94,1.8a25.24,25.24,0,0,0-3.16,1.68,4.32,4.32,0,0,1,2.52,3.35,24.57,24.57,0,0,1,.58,5.29c0,1.21,0,2.39-.07,3.55a3.7,3.7,0,0,1-.45,2.13q-.26,5.8-.45,11.16t-.19,11.16q0,2.83.06,5.61c0,1.85.11,3.72.19,5.61a1.14,1.14,0,0,1-.64.78,28.92,28.92,0,0,0,4.32-.84q2.13-.58,4.32-1.23a11.81,11.81,0,0,1-2.06-2.06,1.51,1.51,0,0,1-1,.51c-.86,0-1.29-.38-1.29-1.16a3.27,3.27,0,0,1,.13-.77c.08-.34.17-.65.25-.9v-.13l-.25-.78a1,1,0,0,1,.77-1,59.93,59.93,0,0,0,1.1-7.29q.32-3.67.32-7.42,0-6.57-.52-13.16t-.51-13.16Z"/><path class="cls-2" d="M597.57,294.86a19.21,19.21,0,0,0-.64,5.35c0,2.11,0,3.94-.13,5.49s-.15,3-.2,4.51-.06,3.14-.06,4.77a55.42,55.42,0,0,0,1.29,11.94,19.06,19.06,0,0,0,5.68,10c0,.17,0,.25.13.25a11.87,11.87,0,0,0,1.48-1.09l1.61-1.36c.52-.43,1-.81,1.49-1.16a2.15,2.15,0,0,1,1.09-.51,1,1,0,0,1,1.16,1.16,1.75,1.75,0,0,1-.38,1,40.8,40.8,0,0,1-6.91,4.32,14.91,14.91,0,0,1-6.51,1.74,7.56,7.56,0,0,1-3.55-.84,6.13,6.13,0,0,1-2.64-2.9c-.52,0-1-.54-1.29-1.61a27.53,27.53,0,0,1-.91-4.06,47.47,47.47,0,0,1-.51-5.55q-.13-3.1-.26-6.07c-.09-2-.13-3.8-.13-5.48V311c0-1.8,0-3.63.06-5.48s.07-3.68.07-5.48c0-.52,0-1.23-.07-2.13s-.1-1.91-.19-3c-1,.08-2,.19-3,.32a21.66,21.66,0,0,1-3,.19,4.73,4.73,0,0,1-2.33-.51c.09,0,.13,0,.13-.07s0-.06.13-.06l-1.55-1.55.39-.39a1.51,1.51,0,0,1,1-.51,10.55,10.55,0,0,0,1.16.39,4.85,4.85,0,0,1,1,.38c.94,0,1.93,0,3-.06s2-.07,3-.07c0-.68,0-1.31.06-1.87s.11-1.14.2-1.74c-.52.43-1.18,1-2,1.74a3.51,3.51,0,0,1-1.87,1.1,1.14,1.14,0,0,1-1.29-1.29c0-.52.62-1.16,1.87-1.94a40.93,40.93,0,0,0,3.68-2.58,3.9,3.9,0,0,1,.64-1.54l.65.38a23,23,0,0,0,4.32-5.29,15.36,15.36,0,0,0,2.13-7l2.58.25c-.18.52-.35,1-.52,1.55l-.51,1.55h.51q-.26,3.87-.71,8c-.3,2.75-.67,5.55-1.09,8.39,2.75-.09,5.45-.26,8.12-.52a69.92,69.92,0,0,0,8.13-1.29c1,0,1.55.43,1.55,1.29,0,.52-.45.9-1.36,1.16a19,19,0,0,1-3.35.58c-1.34.13-2.77.22-4.32.26s-3,.06-4.26.06h-3a.91.91,0,0,1,.26.65Zm-6.19,37.67c.17,2.75.73,4.67,1.68,5.74a4.42,4.42,0,0,0,3.48,1.61,10.15,10.15,0,0,0,4.9-1.42,19.12,19.12,0,0,1-3.55-5.35,31.6,31.6,0,0,1-2.06-6.39,45.63,45.63,0,0,1-.9-7q-.2-3.61-.2-7.1c0-1.89,0-3.69.07-5.42s.06-3.31.06-4.77q-.25,3.22-.51,6.32c-.18,2.07-.26,4.13-.26,6.19a72,72,0,0,0,.77,10.58,43.77,43.77,0,0,0,2.71,9.94c0,.17,0,.28.07.32a.27.27,0,0,1,.06.19,1.14,1.14,0,0,1-1.29,1.29c-.77,0-1.4-.68-1.87-2.06a26.69,26.69,0,0,1-1.1-4.77c-.25-1.81-.43-3.64-.51-5.49s-.13-3.24-.13-4.19q.12-3.36.26-6.64c.08-2.2.21-4.41.38-6.65l.78-13.16c-.86.09-1.7.15-2.52.2s-1.61.11-2.39.19c-.08,1.89-.17,3.5-.25,4.84s-.15,2.56-.2,3.67-.06,2.2-.06,3.23V310a123.72,123.72,0,0,0,2.06,22.58Zm3.61-52c-.69.95-1.35,1.78-2,2.51a15.61,15.61,0,0,0-1.68,2.33,13.47,13.47,0,0,0-1.22,3,19.15,19.15,0,0,0-.65,4.45h2.39q1.23,0,2.52-.12.25-3,.38-6C594.82,284.65,594.9,282.6,595,280.54Z"/><path class="cls-2" d="M629.44,334.08q.64,1,1.29,2.13a8,8,0,0,0,1.67,2c.35-.09.65-.18.91-.26a5.25,5.25,0,0,0,.64-.26c.95,0,1.42.43,1.42,1.29a1.58,1.58,0,0,1-.52,1.16,5.08,5.08,0,0,0,2.33.52l-.52,2.58a13.22,13.22,0,0,1-4.13-2.58q-4.51.76-9.09,1.61t-9.1,1.48l-.26-2.58c.43,0,.86,0,1.29.07s.86.06,1.29.06a25.24,25.24,0,0,0,4.26-.38c-.43-.09-.69-.48-.77-1.17q.39-8.5.64-16.83t.26-16.84a.71.71,0,0,1-.13-.51.74.74,0,0,1,.13-.52c0-1.12,0-2.24-.06-3.35s-.07-2.28-.07-3.49l.9.13a9.67,9.67,0,0,0-.38-2.9,1.54,1.54,0,0,0-1.55-1.23,2.4,2.4,0,0,0-1.1.52,3.73,3.73,0,0,1-1.09.64l-.26-.9c-.43.52-.93,1.08-1.49,1.68a2.24,2.24,0,0,1-1.48.9,1,1,0,0,1-1.16-1.16c0-.69.73-1.59,2.19-2.71a58.21,58.21,0,0,1,4.84-3.29c1.76-1.07,3.4-2,4.9-2.77a22.81,22.81,0,0,1,2.39-1.16l.26.77,2.45.26q-.51,4.26-.77,8.58c-.18,2.88-.26,5.74-.26,8.58q0,5.42.45,10.64t.45,10.26A55.62,55.62,0,0,1,629.44,334.08Zm-.26-68.89a5,5,0,0,1,1.55,3.61,7.55,7.55,0,0,1-1,3.68,12.68,12.68,0,0,1-5.16,5.09,5.53,5.53,0,0,1-2.39.77,2.7,2.7,0,0,1-1.93-.9,11.08,11.08,0,0,1-1.68-2.19,15.79,15.79,0,0,1-1.29-2.65,12.87,12.87,0,0,1-.65-2.12,3.5,3.5,0,0,0-.64.77c-.09.17-.3.26-.65.26a1.14,1.14,0,0,1-1.29-1.29,3.79,3.79,0,0,1,1.23-2.58,16.46,16.46,0,0,1,2.64-2.26,23.11,23.11,0,0,1,2.71-1.61,10,10,0,0,1,1.42-.65,7,7,0,0,1,2.2-.39,5.26,5.26,0,0,1,2.58.65A10.71,10.71,0,0,1,629.18,265.19Zm-.78,6.32a2.11,2.11,0,0,0,.26-1v-1.87a4.78,4.78,0,0,0-.9-3.29,3,3,0,0,0-2.32-1,7.6,7.6,0,0,0-3.87,1.23,15.08,15.08,0,0,0-3.74,3.16l1.54.39a5.26,5.26,0,0,0-.64,2.32,4,4,0,0,0,2.32,3.61l1.68-.39a.57.57,0,0,0,.64.65,3.09,3.09,0,0,0,1.36-.45,12.6,12.6,0,0,0,1.61-1,6.91,6.91,0,0,0,1.35-1.29A3.76,3.76,0,0,0,628.4,271.51Zm-.77,17.16c-1.46.68-2.77,1.29-3.93,1.8a24.71,24.71,0,0,0-3.17,1.68,4.32,4.32,0,0,1,2.52,3.35,24,24,0,0,1,.58,5.29c0,1.21,0,2.39-.06,3.55a3.76,3.76,0,0,1-.46,2.13q-.25,5.8-.45,11.16t-.19,11.16q0,2.83.06,5.61c.05,1.85.11,3.72.2,5.61a1.15,1.15,0,0,1-.65.78,28.67,28.67,0,0,0,4.32-.84c1.42-.39,2.86-.8,4.33-1.23a11.53,11.53,0,0,1-2.07-2.06,1.49,1.49,0,0,1-1,.51c-.86,0-1.29-.38-1.29-1.16a3.27,3.27,0,0,1,.13-.77,8.43,8.43,0,0,1,.26-.9v-.13l-.26-.78a1,1,0,0,1,.77-1,59.93,59.93,0,0,0,1.1-7.29q.31-3.67.32-7.42,0-6.57-.51-13.16t-.52-13.16Z"/><path class="cls-2" d="M650.72,297.83a7.67,7.67,0,0,0-3.22,5,32.47,32.47,0,0,0-.91,8.07,60.93,60.93,0,0,0,.58,8.19q.58,4.18,1.36,7.55l.77-.13q.53,5.8,3.94,8.9a15,15,0,0,0,8.32,3.74,34.76,34.76,0,0,1-5-9.93,1.27,1.27,0,0,1-.91.38c-.68,0-1.11-.64-1.29-1.93a30.68,30.68,0,0,1-.25-4v-3q0-2.84.25-6.51a44.15,44.15,0,0,1,1.1-7.16,26.83,26.83,0,0,1,2.39-6.39,10.51,10.51,0,0,1,4-4.32,39.31,39.31,0,0,0,3.87-2.58,6.28,6.28,0,0,1,3.48-1.55,9.22,9.22,0,0,1,5,1.74A17.72,17.72,0,0,1,678.2,298a36.74,36.74,0,0,1,3.23,5.48q1.41,3,2.45,5.81a1,1,0,0,1,1.16-.91c.52,0,.92.35,1.23,1a9.7,9.7,0,0,1,.64,2.45c.13.95.21,1.91.26,2.9s.06,1.79.06,2.39a28.56,28.56,0,0,1-2.71,12.25,38.55,38.55,0,0,0,6.2-8,19.9,19.9,0,0,0,2.45-10.07,7.45,7.45,0,0,0-.71-3.35,8.28,8.28,0,0,1-.84-3.23h.13a25.08,25.08,0,0,0-7.74-9.67q-4.78-3.5-12.52-4v.13a41.68,41.68,0,0,0-6.64.51,19.89,19.89,0,0,0-5.81,1.87,15.92,15.92,0,0,0-4.64,3.61,16.16,16.16,0,0,0-3.16,5.87,1.85,1.85,0,0,1-1.55,1c-.69,0-1-.39-1-1.16v-.52a20.18,20.18,0,0,1,9-9.8,39.05,39.05,0,0,1,12.9-3.88v-.38a28.17,28.17,0,0,1,13.8,5.35,35.58,35.58,0,0,1,9.42,10.9h.39v.65c.43.69.94,1.61,1.55,2.77a6.55,6.55,0,0,1,.9,2.52c0,.77-.43,1.16-1.29,1.16a22.62,22.62,0,0,1-3.23,10.71c.61.08.91.56.91,1.42a39.55,39.55,0,0,1-10.32,12.83,31.59,31.59,0,0,1-15,6.52l-.26-1.55a.49.49,0,0,1-.38.13,26.63,26.63,0,0,1-10.32-2.26,17.24,17.24,0,0,1-7.62-6.51,1.36,1.36,0,0,1-.77.13q-.64,0-1.23-2.52a62.74,62.74,0,0,1-1-6.26q-.45-3.73-.71-8.06t-.26-8.06a32.7,32.7,0,0,1,.78-8.45,6.64,6.64,0,0,1,3.35-4.07Zm7.1,25.41v1.42a17.54,17.54,0,0,0,1.8,8.06,23,23,0,0,0,5.29,6.65h.91v-.26l2.45-.9c0,.25.17.38.51.38a18.46,18.46,0,0,0,5.23-.77,13.32,13.32,0,0,0,4.45-2.19.38.38,0,0,1-.13-.26c0-.43.47-1,1.42-1.81s1.72-1.37,2.32-1.8a17.83,17.83,0,0,0,2.52-5.68,25.63,25.63,0,0,0,.71-5.93c0-.61,0-1.19-.07-1.75s-.11-1.18-.19-1.87a1,1,0,0,1-.65.13c-.43,0-.77-.3-1-.9-.34-1.38-.84-3.29-1.48-5.74a44,44,0,0,0-2.58-7.16,28.12,28.12,0,0,0-3.74-6.07,6.31,6.31,0,0,0-5-2.58,2.79,2.79,0,0,0-2.06.65,4.08,4.08,0,0,1-1.62,1.68,25.12,25.12,0,0,1-2.38,1.22c-.86.39-1.73.82-2.58,1.29a7.07,7.07,0,0,0-2.2,1.87,18.54,18.54,0,0,0-3.22,6.77,31.21,31.21,0,0,0-.91,7.55c0,1.38.07,2.76.2,4.13s.28,2.71.45,4Zm22.06,13.42a7,7,0,0,1-1.42,1,4.19,4.19,0,0,0,1.1-.64,4.64,4.64,0,0,1,1-.65,1.07,1.07,0,0,1-.51.13C679.92,336.53,679.88,336.57,679.88,336.66Zm7.87-8c-1.21,1.46-2.41,2.82-3.61,4.06s-2.41,2.48-3.62,3.68A22.37,22.37,0,0,0,687.75,328.66Z"/></g></g></svg>